<?xml version="1.0" standalone="no"?>
<!DOCTYPE svg PUBLIC "-//W3C//DTD SVG 20010904//EN"
 "http://www.w3.org/TR/2001/REC-SVG-20010904/DTD/svg10.dtd">
<svg version="1.0" xmlns="http://www.w3.org/2000/svg"
 width="400.000000pt" height="71.000000pt" viewBox="0 0 400.000000 71.000000"
 preserveAspectRatio="xMidYMid meet">

<g transform="translate(0.000000,71.000000) scale(0.100000,-0.100000)"
fill="#ffffff" stroke="none">
<path d="M2677 693 c-4 -3 -7 -30 -7 -60 l0 -53 80 0 80 0 0 60 0 60 -73 0
c-41 0 -77 -3 -80 -7z"/>
<path d="M990 536 c-125 -33 -202 -132 -202 -257 0 -147 119 -264 266 -262 33
1 75 6 91 13 80 30 141 96 166 178 l12 42 17 -51 c64 -187 303 -245 442 -107
55 56 73 102 73 188 0 86 -16 128 -73 186 -136 141 -378 83 -442 -105 l-17
-51 -13 43 c-40 136 -187 220 -320 183z m107 -151 c12 -3 34 -20 48 -36 51
-61 20 -153 -59 -179 -44 -14 -80 -5 -116 32 -25 25 -30 38 -30 78 0 41 5 53
30 79 39 38 65 44 127 26z m540 0 c12 -3 34 -20 48 -36 51 -61 20 -153 -59
-179 -44 -14 -80 -5 -116 32 -25 25 -30 38 -30 78 0 41 5 53 30 79 39 38 65
44 127 26z"/>
<path d="M2997 536 c-62 -17 -97 -43 -121 -90 -38 -77 0 -142 116 -198 90 -43
108 -62 84 -86 -16 -16 -18 -16 -47 0 -27 16 -34 16 -99 2 -43 -10 -70 -21
-70 -29 0 -23 51 -75 87 -90 152 -64 313 13 313 150 0 51 -54 107 -131 137
-75 29 -105 54 -88 74 15 18 28 18 48 0 14 -13 26 -13 89 1 43 10 72 21 72 29
0 24 -51 73 -93 88 -64 23 -107 26 -160 12z"/>
<path d="M3479 541 c-43 -9 -115 -50 -146 -83 -39 -42 -66 -118 -66 -183 2
-209 236 -329 416 -215 42 26 106 104 96 115 -3 2 -36 9 -75 16 -68 11 -71 11
-109 -16 -31 -21 -48 -25 -75 -21 -40 6 -84 36 -88 60 -3 14 15 16 184 16
l187 0 -5 69 c-8 108 -62 185 -159 225 -45 19 -115 26 -160 17z m135 -152 c50
-39 36 -49 -74 -49 -80 0 -100 3 -100 14 0 28 50 56 100 56 33 0 55 -6 74 -21z"/>
<path d="M17 533 c-4 -3 -7 -118 -7 -255 l0 -248 85 0 85 0 0 169 c0 193 4
204 69 199 54 -5 61 -27 61 -210 l0 -158 80 0 80 0 0 163 c0 186 6 207 65 207
59 0 65 -21 65 -207 l0 -163 86 0 86 0 -4 188 c-3 183 -4 188 -30 234 -35 58
-92 88 -167 88 -55 0 -82 -10 -118 -43 l-23 -20 -22 21 c-13 11 -36 25 -51 31
-41 16 -123 13 -157 -4 -27 -14 -30 -14 -30 0 0 12 -14 15 -73 15 -41 0 -77
-3 -80 -7z"/>
<path d="M1887 533 c-4 -3 -7 -118 -7 -255 l0 -248 85 0 85 0 0 169 c0 193 4
204 69 199 54 -5 61 -27 61 -211 l0 -158 83 3 82 3 0 165 c0 91 -4 182 -8 203
-10 45 -60 105 -104 123 -43 19 -127 18 -163 -1 -27 -14 -30 -14 -30 0 0 12
-14 15 -73 15 -41 0 -77 -3 -80 -7z"/>
<path d="M2387 533 c-4 -3 -7 -118 -7 -255 l0 -248 85 0 85 0 0 168 c0 119 4
173 13 185 6 9 30 17 52 19 l40 3 3 68 c3 64 2 67 -20 67 -13 -1 -40 -7 -60
-14 -32 -12 -38 -12 -38 0 0 11 -18 14 -73 14 -41 0 -77 -3 -80 -7z"/>
<path d="M2677 533 c-4 -3 -7 -118 -7 -255 l0 -248 80 0 80 0 0 255 0 255 -73
0 c-41 0 -77 -3 -80 -7z"/>
<path d="M3820 115 l0 -85 80 0 80 0 0 85 0 85 -80 0 -80 0 0 -85z"/>
</g>
</svg>
